<svg xmlns="http://www.w3.org/2000/svg" xmlns:xlink="http://www.w3.org/1999/xlink" version="1.1" width="79" height="17" enable-background="new 0 0 215 42" xml:space="preserve" style="shape-rendering: geometricprecision;"><rect id="backgroundrect" width="100%" height="100%" x="0" y="0" fill="none" stroke="none"/>

<g class="currentLayer" style=""><title>Layer 1</title><g class="logo" id="svg_1" fill="#ffffff" fill-opacity="1">
	<path d="M2.3841857821338408e-8,0.3000011444091797 h12.1 v3.1 H3.5000000238418583 v3.2 h7.5 v3.1 H3.5000000238418583 v3.4 h8.7 v3.1 H2.3841857821338408e-8 V0.3000011444091797 M28.100000023841858,3.50000114440918 h-4.9 V0.3000011444091797 h13.2 v3.2 H31.600000023841858 v12.7 h-3.5 V3.50000114440918 M61.80000002384186,16.60000114440918 l-1.8,-1.6 c-1.3,0.9 -3,1.4 -4.7,1.4 c-4.9,0 -8.4,-3.7 -8.4,-8.2 c0,-4.5 3.6,-8.2 8.5,-8.2 s8.4,3.7 8.4,8.2 c0,1.7000000000000002 -0.5,3.3 -1.4,4.6 l1.6,1.4 l-2.2,2.4 M57.400000023841855,12.80000114440918 l-2.6,-2.2 l2.2,-2.5 l2.6,2.4 c0.30000000000000004,-0.6000000000000001 0.4,-1.4 0.4,-2.2 c0,-2.7 -2,-5 -4.8,-5 s-4.8,2.2 -4.8,5 c0,2.7 2,5 4.8,5 c0.9,-0.1 1.6,-0.2 2.2,-0.5 zM75.50000002384186,12.500001144409179 h3.7 v3.6 h-3.7 z" id="svg_2" fill="#ffffff" fill-opacity="1"/>
</g></g></svg>